# Blender 3.6.0
# www.blender.org
mtllib SfxArcTap.mtl
o Cube
v -0.585000 -0.100000 0.100000
v -0.585000 0.100000 0.100000
v -0.585000 -0.100000 -0.100000
v -0.585000 0.100000 -0.100000
v 0.585000 -0.100000 0.100000
v 0.585000 0.100000 0.100000
v 0.585000 -0.100000 -0.100000
v 0.585000 0.100000 -0.100000
v -0.226274 0.000000 -0.100000
v 0.126274 0.100000 -0.100000
v -0.126274 0.100000 -0.100000
v -0.126274 -0.100000 -0.100000
v 0.226274 0.000000 -0.100000
v 0.126274 -0.100000 -0.100000
v -0.126274 0.100000 0.100000
v 0.226274 0.000000 0.100000
v 0.126274 0.100000 0.100000
v -0.226274 0.000000 0.100000
v 0.126274 -0.100000 0.100000
v -0.126274 -0.100000 0.100000
vn -1.0000 -0.0000 -0.0000
vn -0.0000 -0.0000 -1.0000
vn 1.0000 -0.0000 -0.0000
vn -0.0000 -0.0000 1.0000
vn -0.0000 -1.0000 -0.0000
vn -0.0000 1.0000 -0.0000
vn 0.7071 -0.7071 -0.0000
vn -0.7071 0.7071 -0.0000
vn 0.7071 0.7071 -0.0000
vn -0.7071 -0.7071 -0.0000
vt 1.000000 0.000000
vt 0.800000 0.000000
vt 0.800000 1.000000
vt 1.000000 1.000000
vt 0.315625 1.000000
vt 0.000000 1.000000
vt 0.000000 0.000000
vt 0.315625 0.000000
vt 0.243750 0.500000
vt 0.684375 1.000000
vt 0.684375 0.000000
vt 0.756250 0.500000
vt 0.200000 0.000000
vt 0.200000 1.000000
vt 0.240625 0.500000
vt 0.246875 0.000000
vt 0.246875 1.000000
vt 1.003125 1.000000
vt 1.003125 0.000000
vt 0.756250 0.000000
vt 0.756250 1.000000
vt 0.796875 0.000000
vt 0.796875 1.000000
vt 0.203125 0.000000
vt 0.203125 1.000000
s 0
usemtl Mat.2
f 1/1/1 2/2/1 4/3/1 3/4/1
f 10/5/2 8/6/2 7/7/2 14/8/2 13/9/2
f 12/10/2 3/4/2 4/1/2 11/11/2 9/12/2
f 7/7/3 8/13/3 6/14/3 5/6/3
f 15/10/4 2/4/4 1/1/4 20/11/4 18/12/4
f 5/7/4 6/6/4 17/5/4 16/15/4 19/8/4
f 14/6/5 7/7/5 5/16/5 19/17/5
f 20/18/5 1/19/5 3/20/5 12/21/5
f 4/18/6 2/19/6 15/20/6 11/21/6
f 6/6/6 8/7/6 10/16/6 17/17/6
f 15/22/7 18/1/7 9/4/7 11/23/7
f 19/24/8 16/7/8 13/6/8 14/25/8
f 12/22/9 9/1/9 18/4/9 20/23/9
f 13/24/10 16/7/10 17/6/10 10/25/10
o Cube.1
v -0.181019 0.000000 0.128000
v 0.000000 0.181019 0.128000
v -0.181019 0.000000 -0.128000
v 0.000000 0.181019 -0.128000
v 0.000000 -0.181019 0.128000
v 0.181019 0.000000 0.128000
v 0.000000 -0.181019 -0.128000
v 0.181019 0.000000 -0.128000
vn -0.7071 0.7071 -0.0000
vn -0.0000 -0.0000 -1.0000
vn 0.7071 -0.7071 -0.0000
vn -0.0000 -0.0000 1.0000
vn -0.7071 -0.7071 -0.0000
vn 0.7071 0.7071 -0.0000
vt 0.000100 0.999900
vt 0.000100 0.000100
vt 0.999900 0.000100
vt 0.999900 0.999900
vt 0.999900 0.000100
vt 0.999900 0.999900
vt 0.000100 0.999900
vt 0.000100 0.000100
vt 0.000100 0.999900
vt 0.000100 0.000100
vt 0.999900 0.000100
vt 0.999900 0.999900
vt 0.999900 0.000100
vt 0.999900 0.999900
vt 0.000100 0.999900
vt 0.000100 0.000100
s 0
usemtl Mat
f 21/26/11 22/27/11 24/28/11 23/29/11
f 23/26/12 24/27/12 28/28/12 27/29/12
f 27/30/13 28/31/13 26/32/13 25/33/13
f 25/30/14 26/31/14 22/32/14 21/33/14
f 23/34/15 27/35/15 25/36/15 21/37/15
f 28/38/16 24/39/16 22/40/16 26/41/16
